<svg width="48" height="48" viewBox="0 0 48 48" fill="none" xmlns="http://www.w3.org/2000/svg">
  <path d="M24 4L4 20V42C4 43.1 4.9 44 6 44H18V32C18 28.69 20.69 26 24 26C27.31 26 30 28.69 30 32V44H42C43.1 44 44 43.1 44 42V20L24 4Z" fill="#FEF3C7" stroke="url(#g)" stroke-width="2.5" stroke-linecap="round" stroke-linejoin="round"/>
  <path d="M16 34C16 29.58 19.58 26 24 26C28.42 26 32 29.58 32 34" stroke="url(#g)" stroke-width="2" stroke-linecap="round"/>
  <path d="M19 37C19 34.24 21.24 32 24 32C26.76 32 29 34.24 29 37" stroke="url(#g)" stroke-width="2" stroke-linecap="round"/>
  <rect x="34" y="10" width="4" height="10" rx="1.5" fill="#F59E0B" fill-opacity="0.5"/>
  <circle cx="24" cy="38" r="2" fill="#F59E0B"/>
  <defs>
    <linearGradient id="g" x1="4" y1="4" x2="44" y2="44" gradientUnits="userSpaceOnUse">
      <stop stop-color="#D97706"/><stop offset="0.5" stop-color="#F59E0B"/><stop offset="1" stop-color="#D97706"/>
    </linearGradient>
  </defs>
</svg>
